<svg width="48" height="48" viewBox="0 0 48 48" fill="none" xmlns="http://www.w3.org/2000/svg">
<g filter="url(#filter0_d_3_960)">
<path d="M8.69408 9.52382L28.9583 3.85236L27.8851 1.62825C27.183 0.182586 25.4705 -0.41441 24.0606 0.305497L5.91989 9.52382H8.69408Z" fill="var(--green-text-color)"/>
<path d="M35.0166 3.80957C34.7724 3.80957 34.5282 3.84601 34.284 3.91888L29.6552 5.30342L15.5192 9.52386H31.5645H38.5576L37.6917 6.05035C37.3587 4.69617 36.2376 3.80957 35.0166 3.80957Z" fill="var(--green-text-color)"/>
<path d="M39.4497 10.7161H38.9377H38.2414H37.5452H32.2313H12.7052H10.1449H7.98877H7.58899H6.25042C5.54071 10.7161 4.90736 11.0414 4.4941 11.5539C4.30545 11.7901 4.16171 12.0619 4.08085 12.3605C4.03144 12.5477 4 12.7438 4 12.9443V13.2117V15.7519V37.7716C4 39.0016 5.00618 39.9999 6.24593 39.9999H39.4452C40.685 39.9999 41.6912 39.0016 41.6912 37.7716V31.5548H28.3638C26.2572 31.5548 24.5458 29.8568 24.5458 27.7667V25.7256V25.0349V24.3441V22.8111C24.5458 21.7861 24.959 20.8547 25.6283 20.1728C26.2212 19.5667 27.0163 19.1567 27.9057 19.0542C28.0539 19.0364 28.2066 19.0275 28.3593 19.0275H39.8226H40.5188H41.215H41.6912V12.9443C41.6957 11.7143 40.6895 10.7161 39.4497 10.7161Z" fill="var(--icon-active-color)"/>
<path d="M43.2679 21.1578C43.0433 20.9528 42.7783 20.7968 42.4818 20.6943C42.2527 20.6185 42.0102 20.574 41.7541 20.574H41.6957H41.6508H40.9546H38.4436H28.3639C27.1242 20.574 26.118 21.5722 26.118 22.8022V23.9119V24.6027V25.2934V27.7624C26.118 28.9924 27.1242 29.9906 28.3639 29.9906H41.6957H41.7541C42.0102 29.9906 42.2527 29.9461 42.4818 29.8703C42.7783 29.7723 43.0433 29.6118 43.2679 29.4068C43.7171 29.0013 44.0001 28.413 44.0001 27.7624V22.8022C44.0001 22.1516 43.7171 21.5633 43.2679 21.1578ZM33.0534 25.7257C33.0534 26.3407 32.5503 26.8399 31.9304 26.8399H31.1848C30.5649 26.8399 30.0618 26.3407 30.0618 25.7257V24.9859C30.0618 24.6294 30.228 24.313 30.493 24.1125C30.6862 23.9654 30.9243 23.8718 31.1848 23.8718H31.3735H31.9304C32.5503 23.8718 33.0534 24.3709 33.0534 24.9859V25.7257Z" fill="var(--icon-active-color)"/>
</g>
<defs>
<filter id="filter0_d_3_960" x="0" y="0" width="48.0001" height="48" filterUnits="userSpaceOnUse" color-interpolation-filters="sRGB">
<feFlood flood-opacity="0" result="BackgroundImageFix"/>
<feColorMatrix in="SourceAlpha" type="matrix" values="0 0 0 0 0 0 0 0 0 0 0 0 0 0 0 0 0 0 127 0" result="hardAlpha"/>
<feOffset dy="4"/>
<feGaussianBlur stdDeviation="2"/>
<feComposite in2="hardAlpha" operator="out"/>
<feColorMatrix type="matrix" values="0 0 0 0 0 0 0 0 0 0 0 0 0 0 0 0 0 0 0.25 0"/>
<feBlend mode="normal" in2="BackgroundImageFix" result="effect1_dropShadow_3_960"/>
<feBlend mode="normal" in="SourceGraphic" in2="effect1_dropShadow_3_960" result="shape"/>
</filter>
</defs>
</svg>
